ffmpeg version 3.1.5 Copyright (c) 2000-2016 the FFmpeg developers
  built with Apple LLVM version 7.0.2 (clang-700.1.81)
  configuration: --prefix=/usr/local/Cellar/ffmpeg/3.1.5 --enable-shared --enable-pthreads --enable-gpl --enable-version3 --enable-hardcoded-tables --enable-avresample --cc=clang --host-cflags= --host-ldflags= --enable-opencl --enable-libx264 --enable-libmp3lame --enable-libxvid --enable-libfaac --disable-lzma --enable-nonfree --enable-vda
  libavutil      55. 28.100 / 55. 28.100
  libavcodec     57. 48.101 / 57. 48.101
  libavformat    57. 41.100 / 57. 41.100
  libavdevice    57.  0.101 / 57.  0.101
  libavfilter     6. 47.100 /  6. 47.100
  libavresample   3.  0.  0 /  3.  0.  0
  libswscale      4.  1.100 /  4.  1.100
  libswresample   2.  1.100 /  2.  1.100
  libpostproc    54.  0.100 / 54.  0.100
Input #0, mov,mp4,m4a,3gp,3g2,mj2, from 'videos/gopro_squirrel.mp4':
  Metadata:
    major_brand     : mp42
    minor_version   : 0
    compatible_brands: mp42mp41isomavc1
    creation_time   : 2015-08-19 20:47:43
  Duration: 00:00:41.15, start: 0.000000, bitrate: 852 kb/s
    Stream #0:0(und): Video: h264 (High) (avc1 / 0x31637661), yuv420p(tv, smpte170m), 640x360 [SAR 1:1 DAR 16:9], 736 kb/s, 29.97 fps, 29.97 tbr, 30k tbn, 59.94 tbc (default)
    Metadata:
      creation_time   : 2015-08-19 20:47:43
      handler_name    : L-SMASH Video Handler
      encoder         : AVC Coding
    Stream #0:1(und): Audio: aac (LC) (mp4a / 0x6134706D), 48000 Hz, stereo, fltp, 112 kb/s (default)
    Metadata:
      creation_time   : 2015-08-19 20:47:43
      handler_name    : L-SMASH Audio Handler
[Parsed_showinfo_1 @ 0x7fedeae033e0] config in time_base: 1/30000, frame_rate: 30000/1001
[Parsed_showinfo_1 @ 0x7fedeae033e0] config out time_base: 0/0, frame_rate: 0/0
[null @ 0x7fedeb801200] Using AVStream.codec to pass codec parameters to muxers is deprecated, use AVStream.codecpar instead.
    Last message repeated 1 times
Output #0, null, to 'pipe:':
  Metadata:
    major_brand     : mp42
    minor_version   : 0
    compatible_brands: mp42mp41isomavc1
    encoder         : Lavf57.41.100
    Stream #0:0(und): Video: wrapped_avframe, rgb24, 640x360 [SAR 1:1 DAR 16:9], q=2-31, 200 kb/s, 29.97 fps, 29.97 tbn, 29.97 tbc (default)
    Metadata:
      creation_time   : 2015-08-19 20:47:43
      handler_name    : L-SMASH Video Handler
      encoder         : Lavc57.48.101 wrapped_avframe
    Stream #0:1(und): Audio: pcm_s16le, 48000 Hz, stereo, s16, 1536 kb/s (default)
    Metadata:
      creation_time   : 2015-08-19 20:47:43
      handler_name    : L-SMASH Audio Handler
      encoder         : Lavc57.48.101 pcm_s16le
Stream mapping:
  Stream #0:0 -> #0:0 (h264 (native) -> wrapped_avframe (native))
  Stream #0:1 -> #0:1 (aac (native) -> pcm_s16le (native))
Press [q] to stop, [?] for help
[Parsed_showinfo_1 @ 0x7fedeae033e0] n:   0 pts:  94094 pts_time:3.13647 pos:    91430 fmt:rgb24 sar:1/1 s:640x360 i:P iskey:0 type:I checksum:8FF97260 plane_checksum:[8FF97260] mean:[90 ] stdev:[55.8 ]
[Parsed_showinfo_1 @ 0x7fedeae033e0] n:   1 pts: 158158 pts_time:5.27193 pos:   383075 fmt:rgb24 sar:1/1 s:640x360 i:P iskey:1 type:I checksum:1CA9A36F plane_checksum:[1CA9A36F] mean:[94 ] stdev:[63.7 ]
[Parsed_showinfo_1 @ 0x7fedeae033e0] n:   2 pts: 262262 pts_time:8.74207 pos:   771954 fmt:rgb24 sar:1/1 s:640x360 i:P iskey:1 type:I checksum:BB7FA835 plane_checksum:[BB7FA835] mean:[91 ] stdev:[63.9 ]
frame=    3 fps=0.0 q=-0.0 size=N/A time=00:00:20.05 bitrate=N/A speed=40.1x    [Parsed_showinfo_1 @ 0x7fedeae033e0] n:   3 pts: 648648 pts_time:21.6216 pos:  2278576 fmt:rgb24 sar:1/1 s:640x360 i:P iskey:0 type:I checksum:5F5BCF34 plane_checksum:[5F5BCF34] mean:[97 ] stdev:[61.2 ]
[Parsed_showinfo_1 @ 0x7fedeae033e0] n:   4 pts: 768768 pts_time:25.6256 pos:  2755797 fmt:rgb24 sar:1/1 s:640x360 i:P iskey:1 type:I checksum:C26B0D28 plane_checksum:[C26B0D28] mean:[98 ] stdev:[64.2 ]
[Parsed_showinfo_1 @ 0x7fedeae033e0] n:   5 pts: 882882 pts_time:29.4294 pos:  3217670 fmt:rgb24 sar:1/1 s:640x360 i:P iskey:1 type:I checksum:91834487 plane_checksum:[91834487] mean:[109 ] stdev:[61.2 ]
[Parsed_showinfo_1 @ 0x7fedeae033e0] n:   6 pts: 948948 pts_time:31.6316 pos:  3464998 fmt:rgb24 sar:1/1 s:640x360 i:P iskey:1 type:I checksum:E2DC8401 plane_checksum:[E2DC8401] mean:[96 ] stdev:[58.4 ]
[Parsed_showinfo_1 @ 0x7fedeae033e0] n:   7 pts: 995995 pts_time:33.1998 pos:  3666276 fmt:rgb24 sar:1/1 s:640x360 i:P iskey:0 type:I checksum:0D20E962 plane_checksum:[0D20E962] mean:[3 ] stdev:[21.0 ]
[Parsed_showinfo_1 @ 0x7fedeae033e0] n:   8 pts:1079078 pts_time:35.9693 pos:  3713586 fmt:rgb24 sar:1/1 s:640x360 i:P iskey:1 type:I checksum:7D449174 plane_checksum:[7D449174] mean:[103 ] stdev:[57.2 ]
[Parsed_showinfo_1 @ 0x7fedeae033e0] n:   9 pts:1150149 pts_time:38.3383 pos:  4032530 fmt:rgb24 sar:1/1 s:640x360 i:P iskey:1 type:I checksum:57461A94 plane_checksum:[57461A94] mean:[113 ] stdev:[70.5 ]
frame=   10 fps= 10 q=-0.0 size=N/A time=00:00:41.15 bitrate=N/A speed=41.1x    frame=   10 fps= 10 q=-0.0 Lsize=N/A time=00:00:41.15 bitrate=N/A speed=  41x    
video:5kB audio:7716kB subtitle:0kB other streams:0kB global headers:0kB muxing overhead: unknown
